REM DIRINDEX 1\2,1\3,1\4,1\5
REM DIRNAME folder01,folder02,folder03,folder04,folder05
TITLE ""
FILE "1Q_t_1709-1718.mp3" MP3
  TRACK 01 AUDIO
    TITLE "3:cjc004_6034"
    INDEX 01 00:00:00
  TRACK 02 AUDIO
    TITLE "0:"
    INDEX 01 00:00:70
  TRACK 03 AUDIO
    TITLE "4:cjc004_6035"
    INDEX 01 00:01:19
  TRACK 04 AUDIO
    TITLE "0:"
    INDEX 01 00:02:55
  TRACK 05 AUDIO
    TITLE "5:cjc004_6036"
    INDEX 01 00:03:00
  TRACK 06 AUDIO
    TITLE "0:"
    INDEX 01 00:08:01
  TRACK 07 AUDIO
    TITLE "3:cjc004_6037"
    INDEX 01 00:08:60
  TRACK 08 AUDIO
    TITLE "0:"
    INDEX 01 00:09:67
  TRACK 09 AUDIO
    TITLE "4:cjc004_6038"
    INDEX 01 00:10:18
  TRACK 10 AUDIO
    TITLE "0:"
    INDEX 01 00:11:37
  TRACK 11 AUDIO
    TITLE "5:cjc004_6039"
    INDEX 01 00:11:58
  TRACK 12 AUDIO
    TITLE "0:"
    INDEX 01 00:15:62
  TRACK 13 AUDIO
    TITLE "3:cjc004_6040"
    INDEX 01 00:16:42
  TRACK 14 AUDIO
    TITLE "0:"
    INDEX 01 00:17:61
  TRACK 15 AUDIO
    TITLE "4:cjc004_6041"
    INDEX 01 00:18:11
  TRACK 16 AUDIO
    TITLE "0:"
    INDEX 01 00:19:22
  TRACK 17 AUDIO
    TITLE "5:cjc004_6042"
    INDEX 01 00:19:44
  TRACK 18 AUDIO
    TITLE "0:"
    INDEX 01 00:23:61
  TRACK 19 AUDIO
    TITLE "3:cjc004_6043"
    INDEX 01 00:24:43
  TRACK 20 AUDIO
    TITLE "0:"
    INDEX 01 00:25:70
  TRACK 21 AUDIO
    TITLE "4:cjc004_6044"
    INDEX 01 00:26:24
  TRACK 22 AUDIO
    TITLE "0:"
    INDEX 01 00:27:55
  TRACK 23 AUDIO
    TITLE "5:cjc004_6045"
    INDEX 01 00:28:06
  TRACK 24 AUDIO
    TITLE "0:"
    INDEX 01 00:34:32
  TRACK 25 AUDIO
    TITLE "3:cjc004_6046"
    INDEX 01 00:35:10
  TRACK 26 AUDIO
    TITLE "0:"
    INDEX 01 00:36:19
  TRACK 27 AUDIO
    TITLE "4:cjc004_6047"
    INDEX 01 00:36:52
  TRACK 28 AUDIO
    TITLE "0:"
    INDEX 01 00:37:52
  TRACK 29 AUDIO
    TITLE "5:cjc004_6048"
    INDEX 01 00:38:00
  TRACK 30 AUDIO
    TITLE "0:"
    INDEX 01 00:42:35
  TRACK 31 AUDIO
    TITLE "3:cjc004_6049"
    INDEX 01 00:43:11
  TRACK 32 AUDIO
    TITLE "0:"
    INDEX 01 00:44:28
  TRACK 33 AUDIO
    TITLE "4:cjc004_6050"
    INDEX 01 00:44:56
  TRACK 34 AUDIO
    TITLE "0:"
    INDEX 01 00:46:31
  TRACK 35 AUDIO
    TITLE "5:cjc004_6051"
    INDEX 01 00:46:56
  TRACK 36 AUDIO
    TITLE "0:"
    INDEX 01 00:51:38
  TRACK 37 AUDIO
    TITLE "3:cjc004_6052"
    INDEX 01 00:52:16
  TRACK 38 AUDIO
    TITLE "0:"
    INDEX 01 00:53:53
  TRACK 39 AUDIO
    TITLE "4:cjc004_6053"
    INDEX 01 00:54:03
  TRACK 40 AUDIO
    TITLE "0:"
    INDEX 01 00:55:16
  TRACK 41 AUDIO
    TITLE "5:cjc004_6054"
    INDEX 01 00:55:42
  TRACK 42 AUDIO
    TITLE "0:"
    INDEX 01 01:00:49
  TRACK 43 AUDIO
    TITLE "3:cjc004_6055"
    INDEX 01 01:01:23
  TRACK 44 AUDIO
    TITLE "0:"
    INDEX 01 01:02:44
  TRACK 45 AUDIO
    TITLE "4:cjc004_6056"
    INDEX 01 01:02:71
  TRACK 46 AUDIO
    TITLE "0:"
    INDEX 01 01:03:73
  TRACK 47 AUDIO
    TITLE "5:cjc004_6057"
    INDEX 01 01:04:27
  TRACK 48 AUDIO
    TITLE "0:"
    INDEX 01 01:08:44
  TRACK 49 AUDIO
    TITLE "3:cjc004_6058"
    INDEX 01 01:09:26
  TRACK 50 AUDIO
    TITLE "0:"
    INDEX 01 01:10:31
  TRACK 51 AUDIO
    TITLE "4:cjc004_6059"
    INDEX 01 01:10:59
  TRACK 52 AUDIO
    TITLE "0:"
    INDEX 01 01:12:01
  TRACK 53 AUDIO
    TITLE "5:cjc004_6060"
    INDEX 01 01:12:28
  TRACK 54 AUDIO
    TITLE "0:"
    INDEX 01 01:18:23
  TRACK 55 AUDIO
    TITLE "3:cjc004_6061"
    INDEX 01 01:19:01
  TRACK 56 AUDIO
    TITLE "0:"
    INDEX 01 01:20:08
  TRACK 57 AUDIO
    TITLE "4:cjc004_6062"
    INDEX 01 01:20:40
  TRACK 58 AUDIO
    TITLE "0:"
    INDEX 01 01:21:49
  TRACK 59 AUDIO
    TITLE "5:cjc004_6063"
    INDEX 01 01:22:03
  TRACK 60 AUDIO
    TITLE "0:"
    INDEX 01 01:27:32
